HIERARCHY
ROOT Joint1
{
	OFFSET 0.000000 0.000000 0.000000
	CHANNELS 6 Xposition Yposition Zposition Xrotation Yrotation Zrotation
	JOINT Joint2
	{
		OFFSET -0.000000 0.000000 1.456275
		CHANNELS 6 Xposition Yposition Zposition Xrotation Yrotation Zrotation
		JOINT Joint3
		{
			OFFSET -0.000000 0.000002 1.471446
			CHANNELS 6 Xposition Yposition Zposition Xrotation Yrotation Zrotation
			JOINT Joint4
			{
				OFFSET 0.625745 0.000000 0.917755
				CHANNELS 6 Xposition Yposition Zposition Xrotation Yrotation Zrotation
				JOINT Joint5
				{
					OFFSET -0.629534 0.000001 0.940221
					CHANNELS 6 Xposition Yposition Zposition Xrotation Yrotation Zrotation
					JOINT Joint6
					{
						OFFSET -0.000001 0.113772 1.960660
						CHANNELS 6 Xposition Yposition Zposition Xrotation Yrotation Zrotation
						JOINT Joint7
						{
							OFFSET -0.669733 -0.113771 0.388340
							CHANNELS 6 Xposition Yposition Zposition Xrotation Yrotation Zrotation
							End Site
							{
								OFFSET 0.005509 0.005509 0.438980
							}
						}
					}
				}
			}
		}
	}
}
MOTION
Frames: 14
Frame Time: 0.041667
0.000000 0.000000 0.000000 -0.000000 1.019410 0.016231 -0.000000 -0.000000 1.456275 -0.000000 -44.985176 -0.000000 -0.000000 0.000002 1.471446 -0.000000 -1.133459 -0.044085 0.625744 0.000000 0.917755 0.000004 135.010437 -0.000001 -0.629534 0.000001 0.940221 0.000000 1.709736 0.008185 -0.000001 0.113772 1.960660 -88.321852 89.989662 -0.011923 -0.669733 -0.113771 0.388340 -0.705220 3.566198 134.966860 
0.000000 0.000000 0.000000 -0.000000 1.019410 0.069941 -0.000000 0.000000 1.456275 -0.000000 -45.009837 -0.000000 -0.000000 0.000002 1.471446 -0.000000 -1.133456 -0.085840 0.625744 0.000000 0.917755 0.000004 134.962352 -0.000001 -0.629534 0.000001 0.940221 -0.000000 1.709736 0.089069 -0.000000 0.113772 1.960660 -88.297230 90.028682 0.004696 -0.669733 -0.113771 0.388340 -0.704986 3.566198 134.953692 
0.000000 0.000000 0.000000 -0.000000 1.019410 0.167651 -0.000000 0.000000 1.456275 0.000000 -45.054691 -0.000000 -0.000000 0.000002 1.471445 0.000000 -1.133458 -0.161803 0.625745 0.000000 0.917755 0.000004 134.874899 -0.000001 -0.629534 0.000001 0.940221 -0.000000 1.709737 0.236217 -0.000000 0.113772 1.960660 -88.301976 90.099662 0.001332 -0.669733 -0.113771 0.388339 -0.704560 3.566198 134.929731 
0.000000 0.000000 0.000000 -0.000000 1.019410 0.316067 -0.000000 -0.000000 1.456275 -0.000000 -45.122825 -0.000000 -0.000000 0.000002 1.471446 -0.000000 -1.133458 -0.277186 0.625744 0.000000 0.917756 0.000004 134.742051 -0.000001 -0.629534 0.000001 0.940221 0.000000 1.709737 0.459725 -0.000001 0.113772 1.960660 -88.303022 90.207490 0.000642 -0.669733 -0.113771 0.388340 -0.703914 3.566196 134.893326 
0.000000 0.000000 0.000000 -0.000000 1.019410 0.521894 -0.000000 -0.000000 1.456275 -0.000000 -45.217317 -0.000000 -0.000000 0.000002 1.471446 -0.000000 -1.133458 -0.437201 0.625744 0.000000 0.917755 0.000004 134.557814 -0.000001 -0.629534 0.000001 0.940221 -0.000000 1.709736 0.769690 -0.000001 0.113772 1.960660 -88.303363 90.357016 0.000342 -0.669733 -0.113771 0.388340 -0.703017 3.566194 134.842865 
0.000000 0.000000 0.000000 -0.000000 1.019410 0.791836 -0.000000 -0.000000 1.456275 -0.000000 -45.341241 -0.000000 -0.000000 0.000002 1.471446 0.000000 -1.133460 -0.647061 0.625745 0.000000 0.917755 0.000004 134.316189 -0.000001 -0.629534 0.000001 0.940221 -0.000000 1.709737 1.176209 -0.000001 0.113772 1.960660 -88.303534 90.553125 0.000225 -0.669733 -0.113771 0.388341 -0.701841 3.566190 134.776653 
0.000000 0.000000 0.000000 -0.000000 1.019410 1.132597 -0.000000 -0.000000 1.456275 -0.000000 -45.497680 -0.000000 -0.000000 0.000002 1.471446 0.000000 -1.133460 -0.911979 0.625744 0.000000 0.917754 0.000004 134.011194 -0.000001 -0.629534 0.000001 0.940221 -0.000000 1.709737 1.689380 -0.000001 0.113772 1.960660 -88.303650 90.800678 0.000154 -0.669733 -0.113771 0.388340 -0.700357 3.566183 134.693093 
0.000000 0.000000 0.000000 -0.000000 1.019410 1.550883 -0.000000 0.000000 1.456275 -0.000000 -45.689710 0.000000 -0.000001 0.000002 1.471446 0.000000 -1.133459 -1.237166 0.625745 0.000000 0.917755 0.000004 133.636790 -0.000001 -0.629534 0.000001 0.940221 0.000000 1.709736 2.319299 -0.000000 0.113772 1.960660 -88.303711 91.104553 0.000110 -0.669733 -0.113771 0.388340 -0.698535 3.566172 134.590517 
0.000000 0.000000 0.000000 -0.000000 1.019410 2.053398 -0.000000 0.000000 1.456275 0.000000 -45.920397 0.000000 -0.000000 0.000002 1.471446 0.000000 -1.133458 -1.627836 0.625745 0.000000 0.917755 0.000004 133.186995 -0.000001 -0.629534 0.000001 0.940221 -0.000000 1.709736 3.076063 -0.000001 0.113772 1.960660 -88.303759 91.469620 0.000093 -0.669733 -0.113771 0.388339 -0.696346 3.566154 134.467287 
0.000000 0.000000 0.000000 -0.000000 1.019410 2.646847 -0.000000 0.000000 1.456275 -0.000000 -46.192846 -0.000000 -0.000001 0.000002 1.471445 -0.000000 -1.133456 -2.089199 0.625745 0.000000 0.917755 0.000003 132.655825 -0.000001 -0.629534 0.000001 0.940221 -0.000000 1.709737 3.969770 -0.000001 0.113772 1.960660 -88.303793 91.900749 0.000063 -0.669733 -0.113771 0.388341 -0.693761 3.566127 134.321749 
0.000000 0.000000 0.000000 -0.000000 1.019410 3.337934 -0.000000 0.000000 1.456275 -0.000000 -46.510105 0.000000 -0.000001 0.000002 1.471446 -0.000000 -1.133457 -2.626470 0.625744 0.000000 0.917755 0.000004 132.037228 -0.000001 -0.629534 0.000001 0.940221 -0.000000 1.709737 5.010514 -0.000001 0.113772 1.960660 -88.303800 92.402808 0.000059 -0.669733 -0.113771 0.388340 -0.690751 3.566087 134.152278 
0.000000 0.000000 0.000000 -0.000000 1.019410 4.124978 -0.000000 0.000000 1.456275 -0.000000 -46.871422 -0.000000 -0.000001 0.000002 1.471446 -0.000000 -1.133459 -3.238339 0.625744 0.000000 0.917755 0.000004 131.332749 -0.000001 -0.629533 0.000001 0.940220 0.000000 1.709737 6.195767 -0.000001 0.113772 1.960661 -88.303821 92.974584 0.000048 -0.669733 -0.113771 0.388340 -0.687324 3.566031 133.959271 
0.000000 0.000000 0.000000 -0.000000 1.019410 4.972754 -0.000000 0.000000 1.456275 -0.000000 -47.260616 -0.000000 -0.000000 0.000002 1.471446 0.000001 -1.133459 -3.897425 0.625745 0.000000 0.917755 0.000003 130.573928 -0.000001 -0.629533 0.000001 0.940221 0.000000 1.709737 7.472476 -0.000001 0.113772 1.960660 -88.303834 93.590469 0.000026 -0.669733 -0.113771 0.388341 -0.683631 3.565956 133.751387 
0.000000 0.000000 0.000000 -0.000000 1.019410 5.837648 -0.000000 -0.000000 1.456275 0.000000 -47.657665 -0.000000 -0.000001 0.000002 1.471446 0.000001 -1.133459 -4.569818 0.625745 0.000000 0.917755 0.000003 129.799781 -0.000001 -0.629534 0.000001 0.940221 -0.000000 1.709737 8.774967 -0.000001 0.113772 1.960660 -88.303841 94.218799 0.000027 -0.669733 -0.113771 0.388340 -0.679865 3.565867 133.539269 
